<?xml version="1.0" encoding="utf-8"?>
<!-- Generator: $$$/GeneralStr/196=Adobe Illustrator 27.6.0, SVG Export Plug-In . SVG Version: 6.00 Build 0)  -->
<svg version="1.1" id="Capa_1" xmlns="http://www.w3.org/2000/svg" xmlns:xlink="http://www.w3.org/1999/xlink" x="0px" y="0px"
	 viewBox="0 0 800 516.4" style="enable-background:new 0 0 800 516.4;" xml:space="preserve">
<style type="text/css">
	.st0{fill-rule:evenodd;clip-rule:evenodd;fill:#F7F7F7;}
</style>
<g id="Page-1">
	<g id="Dribbble-Light-Preview" transform="translate(-100.000000, -7482.000000)">
		<g id="icons" transform="translate(56.000000, 160.000000)">
			<path id="behance-_x5B__x23_163_x5D_" class="st0" d="M563.2,7404.9h203.5v-58.3H563.2V7404.9z M663.6,7521.9
				c-45.4,0-79.9,28.1-83.2,80.1h162.9C732.2,7540.4,704.8,7521.9,663.6,7521.9L663.6,7521.9z M669.9,7763c41.9,0,72.7-26.5,79-48.8
				H837c-25.2,80.7-77.2,126-170.7,126c-119.2,0-186.2-84.8-186.2-197.3c0-265,382.4-274.5,363.2,24.7h-263
				C582.9,7728.4,608,7763,669.9,7763L669.9,7763z M273.2,7751.3c48.1,0,81.8-18.5,81.8-68.5c0-51.8-29.8-74.3-79.7-74.3H154.7
				v142.7H273.2z M266.8,7530.7c40,0,67.7-18.6,67.7-61.9c0-45.6-32.2-59.7-76.1-59.7H154.7v121.6H266.8L266.8,7530.7z M281,7320.2
				c94.8,0,160.8,31.3,160.8,128.9c0,48.3-19.4,84.3-68.4,108.5c62.7,18.6,92.4,67.5,92.4,131.8c0,102-80.9,150.7-177.7,150.7H44
				v-520H281z"/>
		</g>
	</g>
</g>
</svg>
